<svg width="55" height="55" viewBox="0 0 55 55" fill="none" xmlns="http://www.w3.org/2000/svg">
<path d="M39.7123 21.4692L43.8513 14.307C44.0912 13.8991 43.9472 13.3713 43.5394 13.1314C43.1315 12.8914 42.6036 13.0353 42.3637 13.4433L38.1768 20.6894C34.9736 19.2257 31.3745 18.4099 27.5476 18.4099C23.7086 18.4099 20.1216 19.2257 16.9184 20.6894L12.7315 13.4433C12.4916 13.0353 11.9637 12.8914 11.5558 13.1314C11.1479 13.3713 11.004 13.8991 11.2439 14.307L15.3828 21.4692C8.25669 25.3321 3.40996 32.5182 2.70215 41H52.3691C51.6612 32.5182 46.8025 25.3321 39.7123 21.4692ZM16.1026 33.9219C14.9629 33.9219 14.0391 32.9981 14.0391 31.8584C14.0391 30.7187 14.9629 29.7949 16.1026 29.7949C17.2423 29.7949 18.1661 30.7187 18.1661 31.8584C18.1661 32.9981 17.2423 33.9219 16.1026 33.9219ZM38.9685 33.9219C37.8289 33.9219 36.9051 32.9981 36.9051 31.8584C36.9051 30.7187 37.8289 29.7949 38.9685 29.7949C40.1082 29.7949 41.032 30.7187 41.032 31.8584C41.032 32.9981 40.1082 33.9219 38.9685 33.9219Z" fill="#3DDC84"/>
</svg>
