<svg width="72" height="101" viewBox="0 0 72 101" fill="none" xmlns="http://www.w3.org/2000/svg">
<g clip-path="url(#clip0_136_12573)">
<path d="M71.0628 20.1523L64.6085 92.4568L35.5962 100.5L6.66377 92.4682L0.216309 20.1523H71.0628Z" fill="#264DE4"/>
<path d="M59.083 87.8527L64.5986 26.0652H35.6396V94.3522L59.083 87.8527Z" fill="#2965F1"/>
<path d="M14.9971 52.8861L15.792 61.7553H35.6396V52.8861H14.9971Z" fill="#EBEBEB"/>
<path d="M35.6397 34.9346H35.6091H13.3999L14.2062 43.8039H35.6397V34.9346Z" fill="#EBEBEB"/>
<path d="M35.6394 85.1482V75.9205L35.6005 75.9309L25.7228 73.2637L25.0913 66.19H20.2915H16.188L17.4306 80.116L35.5985 85.1596L35.6394 85.1482Z" fill="#EBEBEB"/>
<path d="M16.8896 0.5H27.6318V4.99219H21.3818V9.48438H27.6318V13.9766H16.8896V0.5Z" fill="black"/>
<path d="M29.7803 0.5H40.5225V4.40625H34.2725V5.1875H40.5225V14.1719H29.7803V10.0703H36.0303V9.28906H29.7803V0.5Z" fill="black"/>
<path d="M42.6709 0.5H53.4131V4.40625H47.1631V5.1875H53.4131V14.1719H42.6709V10.0703H48.9209V9.28906H42.6709V0.5Z" fill="black"/>
<path d="M46.5304 61.7553L45.5009 73.258L35.6089 75.9279V85.1553L53.7913 80.116L53.9247 78.6176L56.0089 55.2678L56.2253 52.8861L57.8265 34.9346H35.6089V43.8039H48.1065L47.2995 52.8861H35.6089V61.7553H46.5304Z" fill="white"/>
</g>
<defs>
<clipPath id="clip0_136_12573">
<rect width="70.8465" height="100" fill="white" transform="translate(0.216309 0.5)"/>
</clipPath>
</defs>
</svg>
