<svg width="55" height="31" viewBox="0 0 55 31" fill="none" xmlns="http://www.w3.org/2000/svg">
<path d="M0.773438 15.5C0.773438 23.2646 12.7396 29.5592 27.5 29.5592C42.2605 29.5592 54.2268 23.2646 54.2268 15.5C54.2268 7.73547 42.2605 1.44078 27.5 1.44078C12.7396 1.44078 0.773438 7.73547 0.773438 15.5Z" fill="url(#paint0_radial_177_16555)"/>
<path d="M27.5 28.5153C41.6839 28.5153 53.1826 22.6881 53.1826 15.4999C53.1826 8.31183 41.6839 2.48452 27.5 2.48452C13.3161 2.48452 1.81738 8.31183 1.81738 15.4999C1.81738 22.6881 13.3161 28.5153 27.5 28.5153Z" fill="#777BB3"/>
<path d="M15.2943 17.1137C16.4606 17.1137 17.3312 16.8986 17.8821 16.4746C18.4272 16.055 18.8036 15.328 19.0009 14.3138C19.1848 13.3659 19.1148 12.704 18.7927 12.3468C18.4633 11.982 17.7513 11.797 16.6763 11.797H14.8125L13.7792 17.1137H15.2943ZM9.19813 23.6629C9.11161 23.6629 9.02944 23.6242 8.97444 23.5573C8.91934 23.4905 8.89701 23.4026 8.91354 23.3176L11.6519 9.22825C11.6784 9.09205 11.7978 8.99364 11.9366 8.99364H17.8386C19.6934 8.99364 21.074 9.49728 21.9418 10.4907C22.8142 11.4894 23.0836 12.8854 22.7425 14.6398C22.6037 15.3545 22.3649 16.0184 22.0329 16.6127C21.7004 17.2077 21.2611 17.7582 20.7268 18.2492C20.0872 18.8478 19.3634 19.2818 18.5773 19.5372C17.8037 19.7893 16.8101 19.917 15.6243 19.917H13.2345L12.552 23.4282C12.5255 23.5645 12.4062 23.6629 12.2674 23.6629H9.19813Z" fill="black"/>
<path d="M15.0515 12.087H16.6763C17.9737 12.087 18.4243 12.3716 18.5775 12.5413C18.8315 12.823 18.8794 13.4169 18.7162 14.2588C18.5327 15.2013 18.1926 15.8696 17.7052 16.2448C17.2062 16.629 16.395 16.8237 15.2942 16.8237H14.1309L15.0515 12.087ZM17.8385 8.7036H11.9365C11.6589 8.7036 11.4202 8.90042 11.3672 9.17292L8.62883 23.2623C8.59577 23.4323 8.64043 23.6082 8.75054 23.7419C8.86074 23.8755 9.02488 23.9529 9.19811 23.9529H12.2673C12.545 23.9529 12.7837 23.7561 12.8367 23.4836L13.4735 20.207H15.6243C16.8405 20.207 17.8644 20.0744 18.6673 19.8129C19.4929 19.5447 20.2525 19.0898 20.9248 18.4611C21.4809 17.9495 21.9389 17.3753 22.2859 16.7543C22.633 16.133 22.8824 15.4402 23.0272 14.695C23.3863 12.8483 23.0945 11.3695 22.1601 10.3C21.2348 9.24069 19.7808 8.7036 17.8385 8.7036ZM13.4273 17.4037H15.2942C16.5317 17.4037 17.4534 17.1706 18.059 16.7044C18.6647 16.2381 19.0733 15.4598 19.2855 14.3692C19.4886 13.3221 19.3961 12.5832 19.008 12.1527C18.6194 11.7222 17.8423 11.507 16.6763 11.507H14.5734L13.4273 17.4037V17.4037ZM17.8385 9.28361C19.614 9.28361 20.9093 9.74954 21.7234 10.6815C22.5374 11.6135 22.7826 12.9143 22.4578 14.5845C22.3241 15.2724 22.098 15.9015 21.7797 16.4713C21.461 17.0415 21.0448 17.563 20.5305 18.0358C19.9177 18.6093 19.2368 19.018 18.4877 19.2614C17.7385 19.5055 16.7843 19.627 15.6243 19.627H12.9953L12.2673 23.3729H9.19811L11.9365 9.28361H17.8385" fill="white"/>
<path d="M29.7796 19.9171C29.6929 19.9171 29.6109 19.8784 29.5559 19.8115C29.5007 19.7447 29.4783 19.6568 29.4949 19.5718L30.7062 13.3378C30.8214 12.7449 30.793 12.3194 30.6263 12.1396C30.5242 12.0297 30.2176 11.8453 29.3109 11.8453H27.1164L25.5934 19.6823C25.5669 19.8186 25.4475 19.9171 25.3087 19.9171H22.2637C22.177 19.9171 22.095 19.8784 22.0399 19.8115C21.9848 19.7447 21.9624 19.6567 21.979 19.5718L24.7174 5.48238C24.7439 5.34618 24.8632 5.24777 25.0021 5.24777H28.0471C28.1337 5.24777 28.2158 5.28644 28.2709 5.35324C28.326 5.42013 28.3483 5.508 28.3318 5.59307L27.671 8.99364H30.0318C31.8303 8.99364 33.0498 9.3107 33.7601 9.96302C34.4842 10.6285 34.7101 11.6925 34.4317 13.1259L33.1576 19.6823C33.1311 19.8186 33.0118 19.9171 32.8729 19.9171H29.7796Z" fill="black"/>
<path d="M28.0471 4.95776H25.002C24.7243 4.95776 24.4856 5.15457 24.4327 5.42708L21.6943 19.5164C21.6612 19.6865 21.7059 19.8623 21.8161 19.996C21.9263 20.1297 22.0904 20.207 22.2636 20.207H25.3087C25.5863 20.207 25.8251 20.0102 25.878 19.7377L27.3554 12.1353H29.3109C30.216 12.1353 30.4059 12.3286 30.4136 12.337C30.4685 12.396 30.5407 12.6696 30.4215 13.2825L29.2102 19.5164C29.1771 19.6865 29.2218 19.8623 29.332 19.996C29.4422 20.1297 29.6063 20.207 29.7795 20.207H32.8729C33.1505 20.207 33.3893 20.0102 33.4423 19.7377L34.7162 13.1812C35.0152 11.6422 34.7594 10.4877 33.9563 9.74956C33.19 9.04572 31.9062 8.70362 30.0317 8.70362H28.0226L28.6164 5.64845C28.6494 5.47841 28.6048 5.30248 28.4946 5.16888C28.3844 5.03519 28.2203 4.95776 28.0471 4.95776ZM28.0471 5.53776L27.319 9.28362H30.0317C31.7386 9.28362 32.9159 9.58155 33.5639 10.1766C34.2118 10.7721 34.4059 11.7369 34.147 13.0707L32.8729 19.627H29.7795L30.9909 13.3931C31.1287 12.684 31.0781 12.2003 30.8387 11.9424C30.5993 11.6845 30.0899 11.5553 29.3109 11.5553H26.8772L25.3087 19.627H22.2636L25.002 5.53776H28.0471Z" fill="white"/>
<path d="M39.2498 17.1137C40.4161 17.1137 41.2868 16.8986 41.8377 16.4746C42.3827 16.0551 42.7591 15.3281 42.9565 14.3138C43.1405 13.3659 43.0704 12.704 42.7482 12.3468C42.4188 11.982 41.7068 11.797 40.6319 11.797H38.768L37.7347 17.1137H39.2498ZM33.1538 23.6629C33.0673 23.6629 32.9851 23.6242 32.9301 23.5573C32.875 23.4905 32.8526 23.4026 32.8691 23.3176L35.6075 9.22825C35.6341 9.09205 35.7534 8.99364 35.8923 8.99364H41.7941C43.649 8.99364 45.0295 9.49728 45.8974 10.4907C46.7698 11.4893 47.0392 12.8853 46.6981 14.6398C46.5591 15.3545 46.3204 16.0184 45.9884 16.6127C45.6559 17.2077 45.2166 17.7582 44.6823 18.2492C44.0428 18.8478 43.3189 19.2818 42.5328 19.5372C41.7592 19.7893 40.7656 19.917 39.5798 19.917H37.1899L36.5077 23.4282C36.4812 23.5645 36.3619 23.6629 36.223 23.6629H33.1538Z" fill="black"/>
<path d="M39.007 12.087H40.6318C41.9291 12.087 42.3798 12.3716 42.5329 12.5413C42.787 12.823 42.835 13.4169 42.6716 14.2587C42.4882 15.2013 42.148 15.8696 41.6607 16.2448C41.1617 16.629 40.3505 16.8237 39.2497 16.8237H38.0865L39.007 12.087ZM41.794 8.7036H35.8921C35.6144 8.7036 35.3758 8.90042 35.3228 9.17292L32.5844 23.2623C32.5513 23.4323 32.596 23.6082 32.7061 23.7419C32.8163 23.8755 32.9804 23.9529 33.1537 23.9529H36.2229C36.5005 23.9529 36.7393 23.7561 36.7922 23.4836L37.429 20.207H39.5797C40.796 20.207 41.8199 20.0744 42.6227 19.8129C43.4483 19.5447 44.2082 19.0897 44.8805 18.4609C45.4365 17.9494 45.8943 17.3753 46.2414 16.7543C46.5885 16.133 46.8379 15.4402 46.9826 14.695C47.3417 12.8482 47.05 11.3694 46.1156 10.2999C45.1903 9.24069 43.7363 8.7036 41.794 8.7036ZM37.3829 17.4037H39.2497C40.4871 17.4037 41.4089 17.1706 42.0145 16.7044C42.6203 16.2381 43.0287 15.4598 43.241 14.3692C43.4442 13.3221 43.3517 12.5832 42.9635 12.1527C42.5749 11.7222 41.7978 11.507 40.6318 11.507H38.5289L37.3829 17.4037ZM41.794 9.28361C43.5695 9.28361 44.8647 9.74954 45.6788 10.6815C46.493 11.6135 46.738 12.9143 46.4132 14.5845C46.2795 15.2724 46.0534 15.9015 45.7351 16.4713C45.4164 17.0415 45.0002 17.563 44.486 18.0358C43.8731 18.6093 43.1923 19.018 42.4431 19.2614C41.6939 19.5055 40.7397 19.627 39.5797 19.627H36.9508L36.2229 23.3729H33.1537L35.8921 9.28361H41.794" fill="white"/>
<defs>
<radialGradient id="paint0_radial_177_16555" cx="0" cy="0" r="1" gradientUnits="userSpaceOnUse" gradientTransform="translate(16.8202 6.38356) scale(35.0959)">
<stop stop-color="#AEB2D5"/>
<stop offset="0.3" stop-color="#AEB2D5"/>
<stop offset="0.75" stop-color="#484C89"/>
<stop offset="1" stop-color="#484C89"/>
</radialGradient>
</defs>
</svg>
