<svg width="51" height="55" viewBox="0 0 51 55" fill="none" xmlns="http://www.w3.org/2000/svg">
<g clip-path="url(#clip0_177_16290)">
<path d="M23.2523 0.698244C24.6101 -0.0789734 26.3787 -0.082484 27.7354 0.698244C34.5606 4.55488 41.388 8.40547 48.2122 12.2644C49.4957 12.9874 50.3542 14.4159 50.3412 15.8948V39.0978C50.3507 40.638 49.4073 42.1006 48.0532 42.8072C41.2504 46.6426 34.451 50.4827 27.6493 54.318C26.2634 55.1105 24.4593 55.0494 23.1167 54.192C21.0772 53.0097 19.0342 51.8333 16.9945 50.6522C16.5778 50.4037 16.1079 50.2059 15.8136 49.8018C16.0738 49.4511 16.5389 49.4074 16.9169 49.2543C17.7683 48.9836 18.5501 48.5491 19.3322 48.1274C19.53 47.9921 19.7715 48.0439 19.961 48.1651C21.705 49.165 23.4336 50.194 25.1835 51.1844C25.5568 51.3999 25.9348 51.1138 26.2539 50.9359C32.9295 47.163 39.6134 43.4042 46.2879 39.6301C46.5352 39.5111 46.672 39.2486 46.6519 38.9777C46.6565 31.3235 46.653 23.668 46.6542 16.0138C46.6825 15.7064 46.5046 15.4238 46.2267 15.298C39.4474 11.4802 32.6717 7.65653 25.8936 3.83773C25.7762 3.757 25.6371 3.71368 25.4946 3.71347C25.3521 3.71326 25.2128 3.75617 25.0952 3.83656C18.3171 7.65653 11.5425 11.4837 4.76444 15.3013C4.48749 15.4273 4.30162 15.7053 4.33458 16.0138C4.33575 23.668 4.33458 31.3235 4.33458 38.9789C4.32283 39.1111 4.35186 39.2437 4.41777 39.3588C4.48367 39.474 4.58329 39.5662 4.7032 39.6231C6.51196 40.6488 8.32306 41.6672 10.133 42.6894C11.1526 43.2383 12.4046 43.5644 13.528 43.1439C14.5193 42.7883 15.2143 41.7767 15.1953 40.7241C15.2047 33.1145 15.1907 25.5039 15.2024 17.8955C15.1776 17.5577 15.498 17.2786 15.8265 17.3104C16.6956 17.3046 17.5658 17.2987 18.4349 17.3127C18.7976 17.3046 19.0473 17.6683 19.0024 18.0086C18.9989 25.6663 19.0118 33.3242 18.9966 40.9819C18.9989 43.0227 18.1605 45.2434 16.2727 46.242C13.9471 47.4467 11.0727 47.1912 8.77516 46.036C6.78618 45.0433 4.88809 43.8717 2.93442 42.8082C1.57678 42.1055 0.638072 40.6371 0.647629 39.098V15.8948C0.633391 14.3853 1.52607 12.9309 2.84958 12.2184C9.65126 8.37992 16.4518 4.5385 23.2523 0.698244Z" fill="#8CC84B"/>
<path d="M29.1859 16.7711C32.1524 16.5802 35.3282 16.658 37.9976 18.1194C40.0644 19.2393 41.2102 21.5897 41.2467 23.8858C41.189 24.1955 40.8652 24.3664 40.5695 24.3451C39.7089 24.3439 38.848 24.3568 37.9873 24.3393C37.6222 24.3533 37.41 24.0167 37.3641 23.6939C37.1168 22.5953 36.5177 21.5072 35.4836 20.9772C33.8962 20.1825 32.0557 20.2225 30.3247 20.239C29.0611 20.3061 27.7023 20.4155 26.6317 21.1586C25.8098 21.7215 25.5602 22.8578 25.8535 23.7729C26.1301 24.43 26.8886 24.642 27.5092 24.8374C31.0842 25.7724 34.8726 25.6793 38.3793 26.9098C39.8311 27.4115 41.2514 28.3866 41.7483 29.9067C42.3984 31.9441 42.1134 34.3793 40.6639 36.0148C39.4885 37.3608 37.7764 38.0933 36.0689 38.4912C33.7973 38.9977 31.4399 39.0106 29.1331 38.7857C26.9639 38.5384 24.7065 37.9685 23.032 36.4905C21.6 35.2472 20.9006 33.3099 20.97 31.4401C20.9866 31.1243 21.301 30.9041 21.6035 30.9301C22.4703 30.9231 23.337 30.9207 24.2037 30.9312C24.5499 30.9065 24.8066 31.2057 24.8243 31.532C24.9843 32.5787 25.3776 33.6773 26.2904 34.2979C28.052 35.4344 30.2623 35.3566 32.2794 35.3884C33.9504 35.3143 35.8263 35.2918 37.19 34.1874C37.9095 33.5574 38.1226 32.5034 37.9282 31.5967C37.7175 30.8312 36.9167 30.4745 36.229 30.2412C32.6999 29.1248 28.8692 29.5299 25.3741 28.2675C23.9553 27.766 22.5832 26.818 22.0381 25.3603C21.2774 23.2972 21.6259 20.7454 23.2274 19.165C24.7888 17.593 27.0429 16.9876 29.1859 16.7709V16.7711Z" fill="#8CC84B"/>
</g>
<defs>
<clipPath id="clip0_177_16290">
<rect width="49.94" height="55" fill="white" transform="translate(0.529785)"/>
</clipPath>
</defs>
</svg>
