<svg width="165" height="101" viewBox="0 0 165 101" fill="none" xmlns="http://www.w3.org/2000/svg">
<g clip-path="url(#clip0_136_12562)">
<path d="M81.64 100.5C81.1011 100.5 80.5659 100.359 80.0935 100.087L75.1708 97.1725C74.4355 96.7614 74.7943 96.6159 75.0368 96.5321C76.0171 96.1889 76.2161 96.1114 77.2625 95.5171C77.3725 95.4544 77.5164 95.4765 77.629 95.543L81.4108 97.7871C81.5474 97.8609 81.7412 97.8609 81.8678 97.7871L96.6133 89.2756C96.7499 89.1981 96.8385 89.0394 96.8385 88.877V71.8615C96.8385 71.6917 96.7499 71.5404 96.6104 71.4555L81.8707 62.9514C81.7341 62.8702 81.5533 62.8702 81.4167 62.9514L66.68 71.4555C66.5372 71.5367 66.4464 71.6954 66.4464 71.8578V88.8733C66.4464 89.0357 66.535 89.1908 66.6752 89.2683L70.7132 91.601C72.9056 92.6972 74.2455 91.4054 74.2455 90.1061V73.3121C74.2455 73.0721 74.4337 72.8876 74.6736 72.8876H76.5413C76.7738 72.8876 76.9657 73.0721 76.9657 73.3121V90.1135C76.9657 93.0368 75.3712 94.7162 72.5993 94.7162C71.7467 94.7162 71.0749 94.7162 69.1999 93.7934L65.3317 91.5641C64.3757 91.0104 63.7852 89.9769 63.7852 88.8733V71.8578C63.7852 70.7505 64.3757 69.717 65.3317 69.1708L80.092 60.6556C81.0258 60.1278 82.266 60.1278 83.1925 60.6556L97.9343 69.1745C98.8866 69.7244 99.4809 70.7542 99.4809 71.8615V88.877C99.4809 89.9806 98.8866 91.0104 97.9343 91.5641L83.1925 100.079C82.72 100.352 82.1848 100.493 81.6385 100.493" fill="#689F63"/>
<path d="M86.1948 88.7755C79.7429 88.7755 78.3901 85.8139 78.3901 83.3298C78.3901 83.0936 78.5806 82.9054 78.8172 82.9054H80.7217C80.9321 82.9054 81.1093 83.0585 81.1425 83.2663C81.4304 85.2071 82.2867 86.1859 86.1881 86.1859C89.2959 86.1859 90.6173 85.4839 90.6173 83.8359C90.6173 82.8873 90.2408 82.1823 85.413 81.7098C81.3751 81.3112 78.8799 80.4217 78.8799 77.1921C78.8799 74.2171 81.3898 72.4454 85.5939 72.4454C90.3147 72.4454 92.6548 74.0842 92.95 77.6054C92.9611 77.7272 92.9168 77.8454 92.8356 77.9339C92.7544 78.0188 92.64 78.0705 92.5219 78.0705H90.6062C90.4069 78.0705 90.2335 77.9303 90.1929 77.7383C89.7315 75.6972 88.6168 75.0439 85.5865 75.0439C82.1945 75.0439 81.7995 76.225 81.7995 77.1108C81.7995 78.1849 82.2646 78.4987 86.8414 79.104C91.374 79.7056 93.5258 80.5546 93.5258 83.7399C93.5258 86.9511 90.8462 88.7929 86.1734 88.7929L86.1948 88.7755ZM104.134 70.7476H104.628C105.034 70.7476 105.112 70.4633 105.112 70.2972C105.112 69.8617 104.813 69.8617 104.647 69.8617H104.137L104.134 70.7476ZM103.532 69.3524H104.628C105.005 69.3524 105.743 69.3524 105.743 70.1939C105.743 70.7808 105.367 70.9026 105.141 70.9764C105.581 71.0059 105.61 71.2938 105.669 71.6998C105.699 71.9545 105.747 72.3937 105.835 72.5414H105.16C105.141 72.3937 105.038 71.5817 105.038 71.5374C104.994 71.3566 104.931 71.268 104.706 71.268H104.149V72.5451H103.532V69.3524ZM102.214 70.9395C102.214 72.2609 103.281 73.3313 104.591 73.3313C105.913 73.3313 106.98 72.2387 106.98 70.9395C106.98 69.6144 105.898 68.5625 104.588 68.5625C103.296 68.5625 102.211 69.5996 102.211 70.9358L102.214 70.9395ZM107.437 70.9469C107.437 72.5119 106.156 73.7889 104.595 73.7889C103.045 73.7889 101.753 72.5266 101.753 70.9469C101.753 69.3376 103.074 68.1048 104.595 68.1048C106.127 68.1048 107.434 69.3413 107.434 70.9469" fill="#689F63"/>
<path fill-rule="evenodd" clip-rule="evenodd" d="M35.9779 33.922C35.9779 33.2429 35.6199 32.6191 35.0338 32.2814L19.4001 23.2864C19.1362 23.1314 18.8406 23.0502 18.5409 23.0391H18.3792C18.0795 23.0502 17.7839 23.1314 17.5155 23.2864L1.88265 32.2814C1.30021 32.621 0.937012 33.2447 0.937012 33.9239L0.971338 58.1516C0.971338 58.4875 1.14482 58.8013 1.4401 58.9673C1.72799 59.1445 2.08971 59.1445 2.37761 58.9673L11.6716 53.6449C12.2584 53.2958 12.6165 52.6786 12.6165 52.0061V40.6877C12.6165 40.0122 12.9745 39.3884 13.5595 39.0525L17.5163 36.7737C17.8101 36.6039 18.1327 36.5198 18.4612 36.5198C18.7845 36.5198 19.1145 36.6032 19.4001 36.7733L23.3551 39.0514C23.9405 39.3873 24.3 40.0111 24.3 40.6865V52.0043C24.3 52.676 24.6628 53.2961 25.2467 53.6431L34.5347 58.9618C34.8263 59.1353 35.1892 59.1353 35.4796 58.9618C35.7661 58.7957 35.9477 58.482 35.9477 58.1461L35.9779 33.922ZM109.749 46.5364C109.749 46.7051 109.66 46.8612 109.513 46.9446L104.143 50.0399C103.998 50.1237 103.817 50.1237 103.672 50.0399L98.3016 46.9446C98.154 46.8609 98.0654 46.7047 98.0654 46.5364V40.337C98.0654 40.168 98.154 40.0122 98.2979 39.9273L103.665 36.8269C103.812 36.742 103.993 36.742 104.141 36.8269L109.511 39.9273C109.659 40.0122 109.747 40.168 109.747 40.337L109.749 46.5364ZM111.2 0.619589C110.907 0.456446 110.55 0.460876 110.261 0.629554C109.973 0.799341 109.795 1.10938 109.795 1.44527V25.4368C109.795 25.673 109.67 25.8908 109.465 26.0089C109.262 26.127 109.009 26.127 108.804 26.0089L104.888 23.7533C104.305 23.416 103.587 23.416 103.001 23.7533L87.3626 32.7789C86.7783 33.1148 86.4177 33.7386 86.4177 34.4104V52.4668C86.4177 53.1422 86.7783 53.7623 87.3626 54.1019L103.001 63.1338C103.585 63.4696 104.304 63.4696 104.89 63.1338L120.529 54.0982C121.112 53.7586 121.474 53.1385 121.474 52.4631V7.46234C121.474 6.77729 121.101 6.14724 120.503 5.81246L111.2 0.619589ZM163.277 40.1739C163.858 39.8365 164.216 39.2135 164.216 38.5417V34.1656C164.216 33.4924 163.858 32.8712 163.276 32.5324L147.737 23.5116C147.15 23.172 146.43 23.172 145.843 23.5116L130.208 32.5361C129.621 32.8756 129.263 33.4957 129.263 34.1712V52.2202C129.263 52.8993 129.629 53.5268 130.216 53.8627L145.751 62.7174C146.323 63.0459 147.024 63.0496 147.604 62.7285L157.001 57.5057C157.296 57.3396 157.485 57.0259 157.485 56.6863C157.485 56.3467 157.304 56.0293 157.009 55.8632L141.277 46.835C140.982 46.6689 140.801 46.3552 140.801 46.0193V40.3573C140.801 40.0192 140.978 39.7077 141.274 39.5394L146.168 36.7158C146.46 36.546 146.818 36.546 147.109 36.7158L152.007 39.5394C152.299 39.7055 152.48 40.0192 152.48 40.3551V44.8064C152.48 45.1423 152.661 45.4561 152.952 45.6258C153.244 45.7919 153.605 45.7919 153.897 45.6222L163.277 40.1739Z" fill="#333333"/>
<path fill-rule="evenodd" clip-rule="evenodd" d="M146.561 39.3294C146.672 39.264 146.811 39.264 146.923 39.3294L149.924 41.0604C150.036 41.1254 150.105 41.245 150.105 41.3742V44.84C150.105 44.9692 150.036 45.0888 149.924 45.1538L146.923 46.8849C146.811 46.9502 146.672 46.9502 146.561 46.8849L143.562 45.1538C143.448 45.0888 143.378 44.9692 143.378 44.84V41.3742C143.378 41.245 143.444 41.1254 143.559 41.0604L146.561 39.3294Z" fill="#689F63"/>
<path d="M94.3405 31.053L50.5228 9.57507L28.0557 55.4077L71.8723 76.8868L94.3405 31.053Z" fill="url(#paint0_linear_136_12562)"/>
<path d="M25.2109 37.4056L56.1508 79.2811L97.0693 49.0496L66.1276 7.17518L25.2109 37.4056Z" fill="url(#paint1_linear_136_12562)"/>
<path d="M44.7544 23.354V63.0064H78.5946V23.354H44.7544Z" fill="url(#paint2_linear_136_12562)"/>
</g>
<defs>
<linearGradient id="paint0_linear_136_12562" x1="72.4185" y1="20.2803" x2="49.9529" y2="66.1099" gradientUnits="userSpaceOnUse">
<stop offset="0.3" stop-color="#3E863D"/>
<stop offset="0.5" stop-color="#55934F"/>
<stop offset="0.8" stop-color="#5AAD45"/>
</linearGradient>
<linearGradient id="paint1_linear_136_12562" x1="40.8663" y1="58.5834" x2="81.7863" y2="28.3483" gradientUnits="userSpaceOnUse">
<stop offset="0.57" stop-color="#3E863D"/>
<stop offset="0.72" stop-color="#619857"/>
<stop offset="1" stop-color="#76AC64"/>
</linearGradient>
<linearGradient id="paint2_linear_136_12562" x1="44.7658" y1="43.1813" x2="78.601" y2="43.1813" gradientUnits="userSpaceOnUse">
<stop offset="0.16" stop-color="#6BBF47"/>
<stop offset="0.38" stop-color="#79B461"/>
<stop offset="0.47" stop-color="#75AC64"/>
<stop offset="0.7" stop-color="#659E5A"/>
<stop offset="0.9" stop-color="#3E863D"/>
</linearGradient>
<clipPath id="clip0_136_12562">
<rect width="163.279" height="100" fill="white" transform="translate(0.937012 0.5)"/>
</clipPath>
</defs>
</svg>
