<svg width="57" height="55" viewBox="0 0 57 55" fill="none" xmlns="http://www.w3.org/2000/svg">
<g clip-path="url(#clip0_177_16627)">
<path d="M28.2662 0.015564C14.2827 0.015565 15.156 6.07962 15.156 6.07962L15.1715 12.3619H28.5156V14.2482H9.87134C9.87134 14.2482 0.92334 13.2334 0.92334 27.3428C0.923339 41.4522 8.73335 40.9519 8.73335 40.9519H13.3944V34.4046C13.3944 34.4046 13.1432 26.5945 21.0797 26.5945H34.3146C34.3146 26.5945 41.7505 26.7147 41.7505 19.4081V7.32673C41.7505 7.32673 42.8795 0.015564 28.2662 0.015564ZM20.9082 4.24014C22.2359 4.24014 23.3089 5.31319 23.3089 6.64082C23.3089 7.96846 22.2359 9.0415 20.9082 9.0415C19.5806 9.0415 18.5076 7.96846 18.5076 6.64082C18.5076 5.31319 19.5806 4.24014 20.9082 4.24014Z" fill="url(#paint0_linear_177_16627)"/>
<path d="M28.6633 54.8115C42.6467 54.8115 41.7735 48.7474 41.7735 48.7474L41.7579 42.4651H28.4138V40.5789H47.0581C47.0581 40.5789 56.0061 41.5937 56.0061 27.4842C56.0061 13.3748 48.1961 13.8752 48.1961 13.8752H43.535V20.4225C43.535 20.4225 43.7863 28.2325 35.8497 28.2325H22.6148C22.6148 28.2325 15.1789 28.1123 15.1789 35.419V47.5003C15.1789 47.5003 14.0499 54.8115 28.6633 54.8115ZM36.0212 50.5869C34.6936 50.5869 33.6205 49.5139 33.6205 48.1862C33.6205 46.8586 34.6936 45.7855 36.0212 45.7855C37.3488 45.7855 38.4219 46.8586 38.4219 48.1862C38.4219 49.5139 37.3488 50.5869 36.0212 50.5869Z" fill="url(#paint1_linear_177_16627)"/>
</g>
<defs>
<linearGradient id="paint0_linear_177_16627" x1="6.2169" y1="4.94431" x2="33.5139" y2="31.969" gradientUnits="userSpaceOnUse">
<stop stop-color="#387EB8"/>
<stop offset="1" stop-color="#366994"/>
</linearGradient>
<linearGradient id="paint1_linear_177_16627" x1="22.9718" y1="22.2978" x2="52.2859" y2="50.0093" gradientUnits="userSpaceOnUse">
<stop stop-color="#FFE052"/>
<stop offset="1" stop-color="#FFC331"/>
</linearGradient>
<clipPath id="clip0_177_16627">
<rect width="55.2157" height="55" fill="white" transform="translate(0.89209)"/>
</clipPath>
</defs>
</svg>
