<svg width="55" height="55" viewBox="0 0 55 55" fill="none" xmlns="http://www.w3.org/2000/svg">
<path d="M49.6289 0H5.37109C2.40472 0 0 2.40472 0 5.37109V49.6289C0 52.5953 2.40472 55 5.37109 55H49.6289C52.5953 55 55 52.5953 55 49.6289V5.37109C55 2.40472 52.5953 0 49.6289 0Z" fill="#3178C6"/>
<path fill-rule="evenodd" clip-rule="evenodd" d="M34.0527 43.7207V49.0918C34.9229 49.5429 35.9863 49.876 37.168 50.1015C38.3496 50.3271 39.6387 50.4345 40.9277 50.4345C42.2168 50.4345 43.3984 50.3164 44.5801 50.0693C45.7617 49.8222 46.7285 49.414 47.5879 48.8877C48.458 48.3183 49.1992 47.5986 49.6289 46.6318C50.0586 45.665 50.3916 44.5908 50.3916 43.1943C50.3916 42.2168 50.2412 41.3681 49.9512 40.6162C49.6611 39.8642 49.2422 39.2197 48.6621 38.6826C48.1143 38.1133 47.4805 37.6084 46.7285 37.1787C45.9766 36.749 45.1172 36.2978 44.1504 35.8896C43.4414 35.5996 42.8613 35.3203 42.2168 35.041C41.6582 34.7617 41.1748 34.4824 40.8203 34.2031C40.4229 33.9131 40.1221 33.6123 39.9072 33.3008C39.6924 32.9785 39.585 32.624 39.585 32.2265C39.585 31.8613 39.6806 31.5283 39.875 31.2275C40.0694 30.9267 40.3369 30.6797 40.6807 30.4648C41.0244 30.25 41.4541 30.0888 41.9697 29.9707C42.4746 29.8525 43.0332 29.7988 43.6885 29.7988C44.1396 29.7988 44.6123 29.8321 45.085 29.8998C45.5791 29.9675 46.084 30.0717 46.5889 30.2113C47.0938 30.351 47.5879 30.5228 48.0928 30.7377C48.5654 30.9525 49.0059 31.1996 49.3818 31.4789V26.4301C48.5654 26.1185 47.6631 25.8822 46.6963 25.7318C45.7295 25.5814 44.6553 25.5062 43.3662 25.5062C42.0771 25.5062 40.8955 25.6459 39.7139 25.9144C38.5322 26.183 37.5654 26.6127 36.7061 27.2035C35.8359 27.7836 35.2021 28.4926 34.665 29.4593C34.1602 30.3617 33.9131 31.3929 33.9131 32.682C33.9131 34.2933 34.375 35.6898 35.3096 36.764C36.2334 37.9457 37.6729 38.8051 39.499 39.6644C40.2402 39.9652 40.8955 40.266 41.54 40.556C42.1846 40.8461 42.7217 41.1469 43.1514 41.4584C43.6133 41.7699 43.9785 42.1136 44.2256 42.4789C44.4941 42.8441 44.6338 43.2738 44.6338 43.7679C44.6338 44.1117 44.55 44.434 44.3867 44.7347C44.2234 45.0355 43.9678 45.2933 43.624 45.5082C43.2803 45.723 42.8613 45.8949 42.335 46.0238C41.8301 46.142 41.2607 46.2064 40.5088 46.2064C39.3271 46.2064 38.1455 46.0023 37.0713 45.5941C35.8896 45.1859 34.8154 44.5736 33.8486 43.7679L34.0527 43.7207ZM25.0293 30.5078H31.9043V26.1035H12.6758V30.5078H19.5508V50.166H25.0293V30.5078Z" fill="white"/>
</svg>
