<svg width="101" height="101" viewBox="0 0 101 101" fill="none" xmlns="http://www.w3.org/2000/svg">
<g clip-path="url(#clip0_136_12559)">
<path d="M100.937 0.5H0.937012V100.5H100.937V0.5Z" fill="#F7DF1E"/>
<path d="M68.1115 78.6254C70.1258 81.9143 72.7464 84.3318 77.3814 84.3318C81.275 84.3318 83.7623 82.3857 83.7623 79.6968C83.7623 76.4746 81.2068 75.3334 76.9211 73.4588L74.5718 72.4508C67.7909 69.5619 63.2861 65.9429 63.2861 58.2921C63.2861 51.2445 68.656 45.8794 77.048 45.8794C83.0226 45.8794 87.3179 47.9587 90.4131 53.4032L83.0956 58.1016C81.4845 55.2127 79.7464 54.0746 77.048 54.0746C74.2957 54.0746 72.5512 55.8207 72.5512 58.1016C72.5512 60.9207 74.2972 62.0619 78.329 63.808L80.6782 64.8143C88.6623 68.2381 93.1703 71.7286 93.1703 79.5762C93.1703 88.0365 86.5242 92.6714 77.5988 92.6714C68.8718 92.6714 63.2337 88.5127 60.475 83.0619L68.1115 78.6254ZM34.9163 79.4397C36.3925 82.0588 37.7353 84.273 40.9639 84.273C44.0512 84.273 45.9988 83.0651 45.9988 78.3683V46.4159H55.3957V78.4953C55.3957 88.2254 49.6909 92.654 41.3639 92.654C33.8401 92.654 29.483 88.7603 27.2671 84.0707L34.9163 79.4397Z" fill="black"/>
</g>
<defs>
<clipPath id="clip0_136_12559">
<rect width="100" height="100" fill="white" transform="translate(0.937012 0.5)"/>
</clipPath>
</defs>
</svg>
