<svg width="100" height="101" viewBox="0 0 100 101" fill="none" xmlns="http://www.w3.org/2000/svg">
<path fill-rule="evenodd" clip-rule="evenodd" d="M84.0918 47.999C83.31 41.673 81.3854 36.4896 78.695 32.0718C75.3068 32.9834 71.8098 33.7862 68.033 34.3094C67.9746 36.3922 68.5964 38.9188 68.5596 41.4174C67.682 41.4174 66.8046 41.4174 65.927 41.4174C65.845 39.0862 65.6062 36.9118 65.2688 34.836C60.8902 35.3714 56.1468 35.542 51.4478 35.7574C51.1412 37.3812 51.4036 39.5742 51.3162 41.4174C50.4386 41.4174 49.5612 41.4174 48.6836 41.4174C48.3428 39.76 48.7002 36.8408 48.552 35.7574C43.7934 35.4264 38.8214 35.3086 34.4678 34.5728C34.1344 36.6964 33.8688 38.888 33.8096 41.2858C33.1306 41.572 31.9382 41.345 31.0454 41.4174C31.2704 39.0098 31.4658 36.5726 31.8352 34.3094C28.363 33.6134 24.864 32.944 21.4364 32.2034C18.3782 36.2094 16.7094 41.6046 15.908 47.8672C15.1112 46.1192 14.883 43.8026 14.1968 41.944C16.1436 34.2456 20.1074 28.0074 25.517 23.121C31.0882 18.0884 38.3344 14.469 48.0256 13.907C52.6346 13.6398 58.4358 14.4494 62.2416 15.7498C74.1322 19.813 82.6442 29.8344 85.8032 42.339C85.126 44.1192 84.7278 46.1778 84.0918 47.999ZM38.2848 18.514C36.8408 22.6862 35.6642 27.1258 34.8624 31.9402C39.2194 32.4976 43.8168 32.8142 48.5518 32.9932C48.5518 27.5086 48.5518 22.0242 48.5518 16.5396C44.513 16.5812 41.3024 17.4512 38.2848 18.514ZM51.4476 16.5396C51.1406 21.761 51.4036 27.5524 51.316 32.9932C56.1392 32.99 60.642 32.6662 64.874 32.0718C64.0202 27.1776 62.8844 22.5658 61.3198 18.3824C58.3728 17.4246 55.3322 16.5602 51.4476 16.5396ZM67.5064 31.677C70.8884 31.3294 73.7816 30.4932 76.8522 29.8342C73.8336 25.4816 69.6562 22.2878 64.7424 19.8304C65.7692 23.6738 66.7908 27.5224 67.5064 31.677ZM23.1474 29.8342C26.12 30.4594 29.0996 31.0778 32.23 31.5454C32.8468 27.5112 34.0842 23.3958 34.8626 19.962C30.2266 22.4348 25.7208 25.7376 23.1474 29.8342Z" fill="black"/>
<path fill-rule="evenodd" clip-rule="evenodd" d="M8.8 43.787C9.9408 43.787 11.0816 43.787 12.2224 43.787C13.4648 48.7748 14.7184 53.7518 16.0396 58.661C17.376 53.5036 19.011 48.645 20.6466 43.787C21.568 43.787 22.4894 43.787 23.4108 43.787C24.8968 48.7508 26.4484 53.649 27.8862 58.661C29.026 53.4826 30.4318 48.5702 31.9668 43.787C33.0198 43.787 34.0728 43.787 35.1258 43.787C33.1212 49.7678 31.3176 55.9498 29.2024 61.8202C28.2372 61.8202 27.2718 61.8202 26.3066 61.8202C24.7184 57.0904 23.1958 52.2944 21.8312 47.341C20.6076 52.4796 18.8798 57.1138 17.2242 61.8202C16.215 61.8202 15.2058 61.8202 14.1966 61.8202C12.4654 55.8292 10.7274 49.845 8.7998 44.0502C8.8 43.9624 8.8 43.8746 8.8 43.787Z" fill="black"/>
<path fill-rule="evenodd" clip-rule="evenodd" d="M36.8374 43.9186C37.7162 43.6126 39.162 43.8738 40.2598 43.787C41.4246 48.8086 42.8702 53.5496 43.9454 58.661C45.4552 53.677 47.0684 48.7966 48.5524 43.787C49.5178 43.787 50.483 43.787 51.4482 43.787C52.8672 48.7742 54.572 53.4752 55.792 58.661C57.0962 53.6472 58.4934 48.726 59.8726 43.787C60.9694 43.787 62.0664 43.787 63.1632 43.787C61.2186 49.784 59.2386 55.7456 57.3716 61.8202C56.3624 61.8202 55.3532 61.8202 54.344 61.8202C52.808 57.082 51.1334 52.4822 50.0002 47.341C48.5018 52.2486 47.001 57.1536 45.2616 61.8202C44.2524 61.8202 43.2434 61.8202 42.2342 61.8202C40.508 55.78 38.6956 49.8264 36.8374 43.9186Z" fill="black"/>
<path fill-rule="evenodd" clip-rule="evenodd" d="M91.1999 43.787C91.1999 43.8746 91.1999 43.9624 91.1999 44.0502C89.0529 49.801 87.3919 56.0376 85.2767 61.8202C84.3113 61.8202 83.3461 61.8202 82.3809 61.8202C80.7781 57.1048 79.2711 52.2934 77.9055 47.341C76.5817 52.4232 75.0679 57.3156 73.1669 61.8202C72.2017 61.8202 71.2363 61.8202 70.2711 61.8202C68.6461 55.7668 66.4367 49.5958 65.0059 43.787C66.1029 43.787 67.1999 43.787 68.2967 43.787C69.5329 48.7812 70.7711 53.7736 72.1139 58.661C73.5133 53.5228 74.9687 48.4406 76.8525 43.787C77.7301 43.787 78.6075 43.787 79.4851 43.787C80.9505 48.7714 82.5147 53.657 83.9605 58.661C85.0839 53.4662 86.4789 48.543 88.0409 43.787C89.0939 43.787 90.1467 43.787 91.1999 43.787Z" fill="black"/>
<path fill-rule="evenodd" clip-rule="evenodd" d="M65.7956 56.4232C66.7736 59.3722 68.3684 62.3286 67.112 65.769C71.0276 66.6358 75.2682 67.1778 78.9584 68.27C79.84 67.3088 80.32 65.946 80.9328 64.716C81.8982 64.716 82.8634 64.716 83.8286 64.716C81.1182 71.3152 76.8652 76.4416 71.324 80.5116C65.9602 84.4512 58.5704 87.3158 49.8684 87.2246C32.2889 87.0406 22.116 77.2928 16.0396 64.8476C16.7432 64.5422 18.0128 64.8024 18.9354 64.716C19.6492 65.8452 20.1324 67.2044 20.9098 68.27C24.5182 67.1836 28.5282 66.499 32.4932 65.769C31.465 62.2044 32.6842 59.2122 33.9412 56.555C34.1382 59.6926 34.758 62.4076 35.1258 65.3744C39.4038 64.9574 43.758 64.617 48.4204 64.5846C48.7972 61.8898 48.8682 58.8896 49.8684 56.8184C50.6302 59.0842 51.6248 61.117 51.3162 64.453C55.4922 64.9718 60.2628 64.896 64.3476 65.506C65.153 62.801 65.4344 59.5724 65.7956 56.4232ZM35.784 68.0066C37.1016 73.49 38.7774 78.615 40.786 83.4074C43.221 83.9558 45.6924 84.468 48.5522 84.592C48.5346 78.978 48.5768 71.5472 48.5522 67.217C44.1822 67.3664 39.8468 67.5502 35.784 68.0066ZM51.4478 67.3486C51.1408 72.8332 51.404 78.888 51.3162 84.592C54.0228 84.4906 56.357 84.0164 58.6874 83.539C60.6926 78.6994 62.5944 73.7564 63.821 68.1382C59.7602 67.8116 55.839 67.345 51.4478 67.3486ZM33.1514 68.5332C29.6646 68.6906 26.0042 69.8084 22.621 70.5076C25.8062 75.5718 31.1098 79.6566 37.3634 82.091C35.7194 77.812 34.2496 73.3584 33.1514 68.5332ZM66.5854 68.5332C65.4862 73.4012 63.8646 77.747 62.3732 82.2226C68.7186 79.7048 73.717 75.8404 77.3788 70.6392C73.9378 69.7804 70.2852 69.1332 66.5854 68.5332Z" fill="black"/>
</svg>
