<svg width="55" height="55" viewBox="0 0 55 55" fill="none" xmlns="http://www.w3.org/2000/svg">
<path d="M55 42.6164C52.9994 43.1252 51.7619 42.6387 50.6516 40.9716L42.7556 30.0472L41.6144 28.5347L32.3933 41.0077C31.3397 42.5081 30.2345 43.1612 28.2683 42.6302L40.0761 26.7798L29.083 12.4627C30.9736 12.0948 32.2798 12.2822 33.44 13.9752L41.6298 25.0353L49.8798 14.0353C50.9369 12.5348 52.073 11.9642 53.9705 12.5177L49.708 18.1689L43.933 25.6884C43.2455 26.5478 43.34 27.1356 43.9725 27.9658L55 42.6164ZM0.01375 26.5152L0.979687 21.7645C3.60937 12.363 14.3859 8.45625 21.8178 14.2656C26.1611 17.6825 27.2405 22.5156 27.0256 27.9297H2.54375C2.17594 37.675 9.19016 43.5566 18.1328 40.5556C21.2695 39.502 23.1172 37.0459 24.0419 33.9728C24.5111 32.4328 25.288 32.1922 26.7352 32.6322C25.9961 36.4753 24.3289 39.6859 20.8055 41.6952C15.5409 44.703 8.02656 43.7302 4.07344 39.5502C1.71875 37.125 0.745938 34.0519 0.309375 30.7656C0.240625 30.2225 0.103125 29.7052 0 29.1844C0.00916667 28.2952 0.01375 27.406 0.01375 26.5169V26.5152ZM2.58844 25.862H24.7122C24.5678 18.8152 20.1798 13.8102 14.1831 13.7672C7.60031 13.7156 2.87375 18.602 2.58844 25.862V25.862Z" fill="black"/>
</svg>
