<svg width="68" height="101" viewBox="0 0 68 101" fill="none" xmlns="http://www.w3.org/2000/svg">
<g clip-path="url(#clip0_136_12616)">
<path d="M17.3337 100.5C26.5337 100.5 34.0003 93.0333 34.0003 83.8333V67.1667H17.3337C8.13366 67.1667 0.666992 74.6333 0.666992 83.8333C0.666992 93.0333 8.13366 100.5 17.3337 100.5Z" fill="#0ACF83"/>
<path d="M0.666992 50.5C0.666992 41.3 8.13366 33.8333 17.3337 33.8333H34.0003V67.1666H17.3337C8.13366 67.1666 0.666992 59.7 0.666992 50.5Z" fill="#A259FF"/>
<path d="M0.666992 17.1667C0.666992 7.96666 8.13366 0.5 17.3337 0.5H34.0003V33.8333H17.3337C8.13366 33.8333 0.666992 26.3667 0.666992 17.1667Z" fill="#F24E1E"/>
<path d="M34 0.5H50.6667C59.8667 0.5 67.3334 7.96666 67.3334 17.1667C67.3334 26.3667 59.8667 33.8333 50.6667 33.8333H34V0.5Z" fill="#FF7262"/>
<path d="M67.3334 50.5C67.3334 59.7 59.8667 67.1666 50.6667 67.1666C41.4667 67.1666 34 59.7 34 50.5C34 41.3 41.4667 33.8333 50.6667 33.8333C59.8667 33.8333 67.3334 41.3 67.3334 50.5Z" fill="#1ABCFE"/>
</g>
<defs>
<clipPath id="clip0_136_12616">
<rect width="66.68" height="100" fill="white" transform="translate(0.660156 0.5)"/>
</clipPath>
</defs>
</svg>
