<svg width="55" height="55" viewBox="0 0 55 55" fill="none" xmlns="http://www.w3.org/2000/svg">
<g clip-path="url(#clip0_177_16116)">
<path d="M27.4998 14.966C25.0208 14.966 22.5975 15.7011 20.5363 17.0784C18.4751 18.4556 16.8686 20.4132 15.9199 22.7035C14.9713 24.9937 14.723 27.5139 15.2067 29.9453C15.6903 32.3766 16.884 34.61 18.637 36.3629C20.3899 38.1158 22.6232 39.3096 25.0546 39.7932C27.4859 40.2768 30.0061 40.0286 32.2964 39.0799C34.5867 38.1313 36.5442 36.5247 37.9215 34.4635C39.2987 32.4023 40.0339 29.979 40.0339 27.5C40.0299 24.177 38.7081 20.9912 36.3584 18.6415C34.0086 16.2918 30.8229 14.97 27.4998 14.966V14.966Z" fill="#478AFF"/>
<path d="M45.4966 16.0772C48.6499 16.0772 51.2062 13.521 51.2062 10.3677C51.2062 7.21438 48.6499 4.65814 45.4966 4.65814C42.3434 4.65814 39.7871 7.21438 39.7871 10.3677C39.7871 13.521 42.3434 16.0772 45.4966 16.0772Z" fill="#478AFF"/>
<path d="M52.527 16.1071L52.2875 15.5833L51.9134 16.0173C50.9773 17.0794 49.7937 17.8942 48.4675 18.3894L48.0933 18.5241L48.243 18.8983C50.2593 23.7474 50.5146 29.1494 48.9644 34.1671C47.4141 39.1847 44.1563 43.5013 39.7561 46.3681C35.3559 49.2348 30.091 50.4707 24.8748 49.8613C19.6586 49.2519 14.8203 46.8358 11.1994 43.032C7.57845 39.2282 5.40333 34.2769 5.05142 29.0371C4.69951 23.7972 6.19301 18.5995 9.27281 14.3457C12.3526 10.0919 16.8244 7.05048 21.9122 5.74909C27.0001 4.4477 32.383 4.96848 37.127 7.22106L37.4787 7.38943L37.6321 7.01528C38.1912 5.71478 39.0625 4.5723 40.1688 3.68909L40.6178 3.31494L40.1052 3.04929C36.2111 1.02537 31.885 -0.0259842 27.4964 -0.0149903C21.5545 -0.0141371 15.7727 1.91093 11.0163 5.47211C6.25987 9.03328 2.78461 14.039 1.11063 19.7402C-0.563346 25.4414 -0.346014 31.5314 1.7301 37.0987C3.80622 42.6661 7.62946 47.4114 12.6276 50.6244C17.6258 53.8375 23.5301 55.3455 29.4569 54.9228C35.3837 54.5001 41.0143 52.1694 45.5059 48.2795C49.9975 44.3897 53.1086 39.1498 54.3735 33.3442C55.6385 27.5385 54.9894 21.4793 52.5232 16.0734L52.527 16.1071Z" fill="#478AFF"/>
</g>
<defs>
<clipPath id="clip0_177_16116">
<rect width="55" height="55" fill="white"/>
</clipPath>
</defs>
</svg>
